<svg width="32" height="32" viewBox="0 0 32 32" fill="none" xmlns="http://www.w3.org/2000/svg">
 
<path d="M21.762 23.9998C13.631 24.2748 -1.01699 9.74479 5.78401 1.86679L6.934 0.866792C7.51613 0.304057 8.29642 -0.00683075 9.10603 0.00140384C9.91564 0.00963843 10.6894 0.336333 11.26 0.910792C11.2908 0.942196 11.3196 0.975602 11.346 1.01079L13.146 3.34979C13.693 3.92863 13.997 4.69537 13.9951 5.49179C13.9932 6.28821 13.6857 7.05352 13.136 7.62979L11.978 9.08579C12.6191 10.6429 13.5614 12.058 14.7508 13.25C15.9402 14.442 17.3533 15.3873 18.909 16.0318L20.373 14.8668C20.9568 14.3306 21.7202 14.0326 22.5128 14.0315C23.3054 14.0304 24.0697 14.3263 24.655 14.8608L26.995 16.6608C27.0299 16.6872 27.0633 16.7155 27.095 16.7458C27.6721 17.3282 27.9958 18.1149 27.9958 18.9348C27.9958 19.7547 27.6721 20.5414 27.095 21.1238L26.184 22.1738C25.6061 22.758 24.9172 23.2205 24.1577 23.5341C23.3982 23.8477 22.5836 24.0061 21.762 23.9998ZM9.071 1.99979C8.92729 1.99968 8.78497 2.02788 8.65217 2.08279C8.51936 2.1377 8.39867 2.21823 8.297 2.31979L7.146 3.31979C1.50001 10.1078 18.777 26.4228 24.72 20.8078L25.632 19.7568C25.7404 19.6603 25.8286 19.5433 25.8916 19.4126C25.9546 19.2818 25.9911 19.1399 25.999 18.995C26.0069 18.8501 25.9861 18.705 25.9377 18.5682C25.8893 18.4314 25.8143 18.3055 25.717 18.1978L23.39 16.4108C23.3543 16.3846 23.3209 16.3555 23.29 16.3238C23.0813 16.125 22.8042 16.0141 22.516 16.0141C22.2278 16.0141 21.9506 16.125 21.742 16.3238C21.7154 16.3507 21.6874 16.3761 21.658 16.3998L19.7 17.9598C19.5641 18.068 19.4023 18.1389 19.2306 18.1656C19.059 18.1922 18.8833 18.1737 18.721 18.1118C16.7051 17.3608 14.8742 16.1853 13.3523 14.665C11.8304 13.1446 10.653 11.3149 9.9 9.29979C9.83334 9.13516 9.81172 8.95575 9.83738 8.77999C9.86304 8.60424 9.93505 8.43849 10.046 8.29979L11.6 6.34379C11.6231 6.31416 11.6482 6.2861 11.675 6.25979C11.8793 6.05378 11.9939 5.77541 11.9939 5.48529C11.9939 5.19518 11.8793 4.91681 11.675 4.71079C11.6438 4.67969 11.6151 4.64626 11.589 4.61079L9.806 2.28679C9.60453 2.10476 9.34252 2.00423 9.071 2.00479V1.99979ZM26.564 12.5758C31.554 5.23079 22.764 -3.55021 15.427 1.43879C15.3163 1.51266 15.2216 1.60787 15.1482 1.71884C15.0748 1.8298 15.0243 1.9543 14.9996 2.08503C14.9749 2.21576 14.9766 2.3501 15.0045 2.48018C15.0324 2.61026 15.086 2.73347 15.1621 2.84258C15.2382 2.95169 15.3353 3.04452 15.4478 3.11563C15.5602 3.18674 15.6857 3.2347 15.8169 3.2567C15.9481 3.27869 16.0824 3.27429 16.2119 3.24374C16.3414 3.21319 16.4635 3.15712 16.571 3.07879C22.045 -0.680209 28.681 5.96279 24.924 11.4328C24.844 11.5402 24.7864 11.6627 24.7546 11.7928C24.7228 11.923 24.7175 12.0582 24.7389 12.1904C24.7604 12.3226 24.8083 12.4492 24.8796 12.5626C24.9509 12.676 25.0443 12.7739 25.1542 12.8505C25.2641 12.9271 25.3883 12.9808 25.5194 13.0085C25.6505 13.0362 25.7858 13.0372 25.9173 13.0116C26.0488 12.986 26.1738 12.9342 26.2849 12.8593C26.396 12.7845 26.4909 12.6881 26.564 12.5758ZM22.706 10.7108C22.8935 10.5233 22.9988 10.269 22.9988 10.0038C22.9988 9.73863 22.8935 9.48432 22.706 9.29679L21 7.58979V4.99979C21 4.73458 20.8946 4.48022 20.7071 4.29269C20.5196 4.10515 20.2652 3.99979 20 3.99979C19.7348 3.99979 19.4804 4.10515 19.2929 4.29269C19.1053 4.48022 19 4.73458 19 4.99979V7.99979C19 8.26499 19.1054 8.5193 19.293 8.70679L21.293 10.7068C21.4805 10.8943 21.7348 10.9996 22 10.9996C22.2652 10.9996 22.5195 10.8943 22.707 10.7068L22.706 10.7108Z" fill="#ffffff"/> 
<defs>
<filter id="filter0_d_2_7462" x="0" y="0" width="32" height="32" filterUnits="userSpaceOnUse" color-interpolation-filters="sRGB">
<feFlood flood-opacity="0" result="BackgroundImageFix"/>
<feColorMatrix in="SourceAlpha" type="matrix" values="0 0 0 0 0 0 0 0 0 0 0 0 0 0 0 0 0 0 127 0" result="hardAlpha"/>
<feOffset dy="4"/>
<feGaussianBlur stdDeviation="2"/>
<feComposite in2="hardAlpha" operator="out"/>
<feColorMatrix type="matrix" values="0 0 0 0 0 0 0 0 0 0 0 0 0 0 0 0 0 0 0.25 0"/>
<feBlend mode="normal" in2="BackgroundImageFix" result="effect1_dropShadow_2_7462"/>
<feBlend mode="normal" in="SourceGraphic" in2="effect1_dropShadow_2_7462" result="shape"/>
</filter>
<clipPath id="clip0_2_7462">
<rect width="24" height="24" fill="white" transform="translate(4)"/>
</clipPath>
</defs>
</svg>
