<svg width="24" height="24" viewBox="0 0 24 24" fill="none" xmlns="http://www.w3.org/2000/svg">
<path d="M22.849 7.67986L13.849 0.636862C13.321 0.223274 12.6697 -0.00146484 11.999 -0.00146484C11.3283 -0.00146484 10.677 0.223274 10.149 0.636862L1.14902 7.67986C0.789811 7.95988 0.499495 8.31844 0.300328 8.72804C0.101161 9.13764 -0.00156748 9.58741 1.80786e-05 10.0429V23.9999H24V10.0429C24.0014 9.58724 23.8983 9.13737 23.6988 8.72776C23.4993 8.31814 23.2086 7.95968 22.849 7.67986ZM22 21.9999H2.00002V10.0429C1.99953 9.8909 2.03389 9.74085 2.10046 9.60425C2.16703 9.46764 2.26404 9.34812 2.38402 9.25486L11.384 2.21186C11.5599 2.07433 11.7767 1.99961 12 1.99961C12.2233 1.99961 12.4401 2.07433 12.616 2.21186L21.616 9.25486C21.736 9.34812 21.833 9.46764 21.8996 9.60425C21.9661 9.74085 22.0005 9.8909 22 10.0429V21.9999ZM12 8.00586C11.01 8.00567 10.0422 8.29939 9.21932 8.84978C8.39641 9.40018 7.75541 10.1825 7.37756 11.0975C6.99971 12.0126 6.90201 13.0192 7.09685 13.9899C7.29169 14.9605 7.7703 15.8515 8.47202 16.5499L12 19.9999L15.536 16.5419C16.2355 15.8426 16.7118 14.9516 16.9048 13.9816C17.0978 13.0115 16.9988 12.0061 16.6203 11.0923C16.2418 10.1786 15.6008 9.39761 14.7784 8.84822C13.9559 8.29882 12.9891 8.00568 12 8.00586ZM14.129 15.1199L12 17.1999L9.87802 15.1279C9.45886 14.7086 9.1733 14.1746 9.05741 13.5932C8.94152 13.0118 9.00049 12.4091 9.22687 11.8612C9.45325 11.3133 9.83689 10.8447 10.3294 10.5146C10.8218 10.1846 11.401 10.0079 11.9939 10.0067C12.5867 10.0056 13.1666 10.1802 13.6603 10.5084C14.154 10.8366 14.5394 11.3037 14.7679 11.8507C14.9963 12.3978 15.0575 13.0003 14.9438 13.5821C14.8301 14.1639 14.5466 14.699 14.129 15.1199ZM13 12.9999C13 13.1976 12.9414 13.391 12.8315 13.5554C12.7216 13.7199 12.5654 13.8481 12.3827 13.9237C12.2 13.9994 11.9989 14.0192 11.8049 13.9806C11.6109 13.9421 11.4328 13.8468 11.2929 13.707C11.1531 13.5671 11.0578 13.3889 11.0192 13.195C10.9806 13.001 11.0005 12.7999 11.0761 12.6172C11.1518 12.4345 11.28 12.2783 11.4444 12.1684C11.6089 12.0585 11.8022 11.9999 12 11.9999C12.2652 11.9999 12.5196 12.1052 12.7071 12.2928C12.8947 12.4803 13 12.7346 13 12.9999Z" fill="#374957"/>
</svg>
