<svg width="23" height="14" viewBox="0 0 23 14" fill="none" xmlns="http://www.w3.org/2000/svg">
<path d="M9.03958 6.49024C9.03958 6.49024 11.1584 6.32924 11.1584 3.79391C11.1584 1.26067 9.72136 0.0118998 7.52481 0.0118998L0 0V13.9997H7.69981C7.69981 13.9997 11.5497 14.1215 11.5497 9.79976C11.5497 9.79976 11.8325 6.49024 9.03958 6.49024ZM2.79993 2.09995H6.64984C6.64984 2.09995 7.9672 2.12165 7.9672 3.82961C7.9672 5.59986 6.64984 5.59986 6.64984 5.59986H2.79993V2.09995ZM6.99983 11.8997H2.79993V7.69981H6.99983C6.99983 7.69981 9.09978 7.72151 9.09978 9.79976C9.09978 11.878 7.30222 11.8997 6.99983 11.8997Z" fill="white"/>
<path d="M17.4997 3.50023C12.2408 3.50023 12.2499 8.7501 12.2499 8.7501C12.2499 8.7501 11.8999 14 17.4997 14C17.4997 14 22.3996 14 22.3996 9.80007H19.5997C19.5997 9.80007 19.5997 11.9 17.4997 11.9C17.4997 11.9 15.3998 11.9 15.3998 9.10009C15.3998 9.10009 20.9997 9.10009 22.3996 9.10009C22.3996 7.70012 22.3996 3.50023 17.4997 3.50023ZM15.3998 7.70012C15.3998 7.70012 15.3536 5.60018 17.4997 5.60018C19.6452 5.60018 19.5997 7.70012 19.5997 7.70012H15.3998Z" fill="white"/>
<path d="M20.2999 1.40009H14.7V2.80006H20.2999V1.40009Z" fill="white"/>
</svg>
