<svg width="17" height="16" viewBox="0 0 17 16" fill="none" xmlns="http://www.w3.org/2000/svg">
<path fill-rule="evenodd" clip-rule="evenodd" d="M1.58216 0C0.929283 0 0.399658 0.5135 0.399658 1.14612V14.8542C0.399658 15.4869 0.929346 16 1.58216 16H15.2172C15.8703 16 16.3997 15.4869 16.3997 14.8541V1.14612C16.3997 0.5135 15.8703 0 15.2172 0H1.58216ZM5.26177 6.18668V13.3899H2.86752V6.18668H5.26177ZM5.41959 3.95899C5.41959 4.65024 4.8999 5.20337 4.06515 5.20337L4.04946 5.20331C3.2459 5.20331 2.7264 4.65018 2.7264 3.95893C2.7264 3.25199 3.26159 2.71431 4.08102 2.71431C4.8999 2.71431 5.40396 3.25199 5.41959 3.95899ZM8.98109 13.3899H6.58703C6.58703 13.3899 6.6184 6.86268 6.58715 6.18693H8.98127V7.20652C9.29953 6.7158 9.86913 6.01781 11.1391 6.01781C12.7143 6.01781 13.8953 7.04737 13.8953 9.25981V13.3899H11.5013V9.53681C11.5013 8.56837 11.1546 7.90787 10.2885 7.90787C9.6269 7.90787 9.23296 8.35331 9.05996 8.78362C8.99671 8.93718 8.98109 9.15274 8.98109 9.36774V13.3899Z" fill="white"/>
</svg>
