<svg width="24" height="24" viewBox="0 0 24 24" fill="none" xmlns="http://www.w3.org/2000/svg">
<g clip-path="url(#clip0_1_29)">
<rect width="24" height="24" rx="12" fill="white"/>
<path fill-rule="evenodd" clip-rule="evenodd" d="M100 0H0V100H100V0ZM10.8457 11.6391C10.8457 11.6391 11.9815 11.5528 11.9815 10.1937C11.9815 8.83578 11.2111 8.16638 10.0337 8.16638L6 8.16V15.6645H10.1275C10.1275 15.6645 12.1912 15.7298 12.1912 13.4131C12.1912 13.4131 12.3428 11.6391 10.8457 11.6391ZM7.5009 9.28567H9.56464C9.56464 9.28567 10.2708 9.29731 10.2708 10.2129C10.2708 11.1618 9.56464 11.1618 9.56464 11.1618H7.5009V9.28567ZM9.75225 14.5388H7.5009V12.2875H9.75225C9.75225 12.2875 10.8779 12.2991 10.8779 13.4131C10.8779 14.5272 9.91435 14.5388 9.75225 14.5388ZM15.3807 10.0363C12.5617 10.0363 12.5665 12.8505 12.5665 12.8505C12.5665 12.8505 12.3789 15.6647 15.3807 15.6647C15.3807 15.6647 18.0073 15.6647 18.0073 13.4133H16.5064C16.5064 13.4133 16.5064 14.539 15.3807 14.539C15.3807 14.539 14.255 14.539 14.255 13.0381H18.0073C18.0073 12.2876 18.0073 10.0363 15.3807 10.0363ZM14.255 12.2876C14.255 12.2876 14.2303 11.162 15.3807 11.162C16.5308 11.162 16.5064 12.2876 16.5064 12.2876H14.255ZM13.8799 8.91052H16.8817V9.66097H13.8799V8.91052Z" fill="#005CFF"/>
</g>
<defs>
<clipPath id="clip0_1_29">
<rect width="24" height="24" rx="12" fill="white"/>
</clipPath>
</defs>
</svg>
