<svg width="24" height="24" viewBox="0 0 24 24" fill="none" xmlns="http://www.w3.org/2000/svg">
<g clip-path="url(#clip0_1_43)">
<rect width="24" height="24" rx="12" fill="white"/>
<path fill-rule="evenodd" clip-rule="evenodd" d="M100 0H0V100H100V0ZM6 12.0023C6 15.3109 8.69378 18 12.007 18C15.3203 18 18.0141 15.3062 18.0141 11.9977C18.0141 8.68909 15.3203 6 12.007 6C8.69378 6 6 8.68909 6 12.0023ZM13.8749 12.5984C15.4846 12.3449 16.8971 12.7626 17.0708 12.8189C16.8455 14.2456 16.0242 15.4752 14.8698 16.2495C14.8181 15.9398 14.546 14.438 13.8749 12.5984ZM12.9175 12.8377C13.6355 14.7055 13.9359 16.273 14.011 16.7235C13.3962 16.9863 12.7157 17.1318 12.007 17.1271C10.8197 17.1271 9.72624 16.7235 8.85804 16.0477C8.9519 15.86 9.98905 13.8561 12.8846 12.8471C12.894 12.8471 12.9081 12.8424 12.9175 12.8377ZM12.3684 12.0493C9.72155 12.9081 8.31365 15.2358 8.19632 15.4329C7.37505 14.5225 6.87759 13.3211 6.8729 12.0023C6.8729 11.9765 6.87407 11.9507 6.87525 11.9249C6.87642 11.8991 6.87759 11.8733 6.87759 11.8475C7.10286 11.8522 9.59015 11.885 12.1525 11.1201C12.3027 11.4063 12.4435 11.6973 12.5702 11.9883C12.5584 11.9917 12.5464 11.995 12.5343 11.9984C12.4793 12.014 12.4223 12.03 12.3684 12.0493ZM11.7302 10.3316C9.32734 10.9699 7.21549 10.9605 6.98553 10.9558C7.31873 9.36957 8.38874 8.04615 9.82949 7.37036C9.83385 7.37643 9.83908 7.3837 9.84515 7.39214C10.0219 7.63779 10.9089 8.87066 11.7302 10.3316ZM12.7204 10.0219C11.8803 8.4779 10.9464 7.21079 10.8056 7.02307C11.1905 6.93391 11.5941 6.88228 12.007 6.88228C13.3117 6.88228 14.5037 7.37036 15.4095 8.17286C15.3156 8.30426 14.546 9.33672 12.7204 10.0219ZM13.1146 10.7869C15.0106 10.0125 15.8694 8.90966 15.9773 8.76418C16.6953 9.63707 17.1271 10.7493 17.1412 11.9554C17.1369 11.9546 17.1317 11.9536 17.1256 11.9524C16.8872 11.9055 15.2352 11.5807 13.5698 11.7912C13.5323 11.7067 13.4947 11.6175 13.4572 11.5284C13.3492 11.2796 13.2319 11.0309 13.1146 10.7869Z" fill="#E74D89"/>
<path d="M12.0066 6.39886C15.104 6.39886 17.61 8.90493 17.61 11.9976C17.61 15.0903 15.104 17.6011 12.0066 17.6011C8.9092 17.6011 6.40314 15.095 6.40314 12.0023C6.40314 8.90962 8.9092 6.39886 12.0066 6.39886Z" fill="#E74D89"/>
<path d="M12.007 18C8.69378 18 6 15.3109 6 12.0023C6 8.68909 8.69378 6 12.007 6C15.3203 6 18.0141 8.68909 18.0141 11.9977C18.0141 15.3062 15.3203 18 12.007 18ZM17.0708 12.8189C16.8971 12.7626 15.4846 12.3449 13.8749 12.5984C14.546 14.438 14.8181 15.9398 14.8698 16.2495C16.0242 15.4752 16.8455 14.2456 17.0708 12.8189ZM14.011 16.7235C13.9359 16.273 13.6355 14.7055 12.9175 12.8377C12.9081 12.8424 12.894 12.8471 12.8846 12.8471C9.98905 13.8561 8.9519 15.86 8.85804 16.0477C9.72624 16.7235 10.8197 17.1271 12.007 17.1271C12.7157 17.1318 13.3962 16.9863 14.011 16.7235ZM8.19632 15.4329C8.31365 15.2358 9.72155 12.9081 12.3684 12.0493C12.4341 12.0258 12.5045 12.007 12.5702 11.9883C12.4435 11.6973 12.3027 11.4063 12.1525 11.1201C9.59015 11.885 7.10286 11.8522 6.87759 11.8475C6.87759 11.8991 6.8729 11.9507 6.8729 12.0023C6.87759 13.3211 7.37505 14.5225 8.19632 15.4329ZM6.98553 10.9558C7.21549 10.9605 9.32734 10.9699 11.7302 10.3316C10.8807 8.82049 9.96089 7.55338 9.82949 7.37036C8.38874 8.04615 7.31873 9.36957 6.98553 10.9558ZM10.8056 7.02307C10.9464 7.21079 11.8803 8.4779 12.7204 10.0219C14.546 9.33672 15.3156 8.30426 15.4095 8.17286C14.5037 7.37036 13.3117 6.88228 12.007 6.88228C11.5941 6.88228 11.1905 6.93391 10.8056 7.02307ZM15.9773 8.76418C15.8694 8.90966 15.0106 10.0125 13.1146 10.7869C13.2319 11.0309 13.3492 11.2796 13.4572 11.5284C13.4947 11.6175 13.5323 11.7067 13.5698 11.7912C15.2781 11.5753 16.9722 11.9226 17.1412 11.9554C17.1271 10.7493 16.6953 9.63707 15.9773 8.76418Z" fill="white"/>
</g>
<defs>
<clipPath id="clip0_1_43">
<rect width="24" height="24" rx="12" fill="white"/>
</clipPath>
</defs>
</svg>
