<svg width="24" height="24" viewBox="0 0 24 24" fill="none" xmlns="http://www.w3.org/2000/svg">
<g clip-path="url(#clip0_1_36)">
<rect width="24" height="24" rx="12" fill="white"/>
<path d="M0 0H100V100H0V0Z" fill="#333333"/>
<path d="M9.59616 19.177C10.9195 19.177 11.9923 18.1042 11.9923 16.7808V14.3846H9.59616C8.27279 14.3846 7.2 15.4574 7.2 16.7808C7.2 18.1042 8.27279 19.177 9.59616 19.177Z" fill="#0ACF83"/>
<path d="M7.2 11.9885C7.2 10.6651 8.27279 9.59231 9.59616 9.59231H11.9923V14.3846H9.59616C8.27279 14.3846 7.2 13.3118 7.2 11.9885Z" fill="#A259FF"/>
<path d="M7.2 7.19615C7.2 5.87278 8.2728 4.79999 9.59616 4.79999H11.9923L11.9923 9.59231H9.59616C8.27279 9.59231 7.2 8.51951 7.2 7.19615Z" fill="#F24E1E"/>
<path d="M11.9923 4.79999L14.3885 4.79999C15.7118 4.79999 16.7846 5.87279 16.7846 7.19615C16.7846 8.51952 15.7118 9.59231 14.3885 9.59231L11.9923 9.59231L11.9923 4.79999Z" fill="#FF7262"/>
<path d="M16.7846 11.9885C16.7846 13.3118 15.7118 14.3846 14.3885 14.3846C13.0651 14.3846 11.9923 13.3118 11.9923 11.9885C11.9923 10.6651 13.0651 9.59231 14.3885 9.59231C15.7118 9.59231 16.7846 10.6651 16.7846 11.9885Z" fill="#1ABCFE"/>
</g>
<defs>
<clipPath id="clip0_1_36">
<rect width="24" height="24" rx="12" fill="white"/>
</clipPath>
</defs>
</svg>
