<svg width="24" height="24" viewBox="0 0 24 24" fill="none" xmlns="http://www.w3.org/2000/svg">
<g clip-path="url(#clip0_1_66)">
<rect width="24" height="24" rx="12" fill="white"/>
<path fill-rule="evenodd" clip-rule="evenodd" d="M100 0H0V100H100V0ZM12.0769 9.88846C10.8698 9.88846 9.89161 10.8666 9.89161 12.073C9.89161 13.2793 10.8698 14.2574 12.0769 14.2574C13.2839 14.2574 14.2627 13.2793 14.2627 12.073C14.2627 10.8666 13.2839 9.88846 12.0769 9.88846ZM12.0769 15.4378C10.2174 15.4378 8.71 13.9314 8.71 12.073C8.71 10.2145 10.2174 8.70809 12.0769 8.70809C13.9364 8.70809 15.4438 10.2145 15.4438 12.073C15.4438 13.9314 13.9364 15.4378 12.0769 15.4378ZM14.9227 9.0116C14.8362 8.88225 14.7902 8.7302 14.7902 8.57467C14.7904 8.3662 14.8734 8.16633 15.0209 8.01895C15.1684 7.87156 15.3685 7.78873 15.5771 7.78863H15.5774C15.733 7.78869 15.8851 7.83487 16.0145 7.92133C16.1438 8.00779 16.2446 8.13064 16.3041 8.27435C16.3636 8.41806 16.3791 8.57618 16.3487 8.7287C16.3183 8.88123 16.2433 9.02131 16.1332 9.13124C16.0231 9.24117 15.8829 9.31601 15.7302 9.34629C15.5776 9.37657 15.4194 9.36094 15.2757 9.30136C15.1319 9.24179 15.0091 9.14095 14.9227 9.0116ZM8.21026 17.1815C8.44117 17.2714 8.78863 17.3778 9.4279 17.4069C10.1188 17.4387 10.3259 17.445 12.0769 17.445C13.8279 17.445 14.0355 17.4387 14.7267 17.4069C15.3659 17.3779 15.7135 17.2714 15.9443 17.1815C16.2504 17.0624 16.4692 16.9203 16.6985 16.6913C16.9278 16.4623 17.0698 16.244 17.1889 15.9381C17.2784 15.7073 17.3854 15.3601 17.4145 14.7212C17.4463 14.0299 17.4526 13.823 17.4526 12.073C17.4526 10.3231 17.4463 10.1161 17.4145 9.42482C17.3854 8.78594 17.279 8.43858 17.1889 8.20792C17.0698 7.90197 16.9281 7.68336 16.6985 7.45417C16.4688 7.22497 16.2504 7.08259 15.9443 6.96401C15.7128 6.87489 15.3659 6.76768 14.7267 6.73859C14.0349 6.70734 13.8271 6.70047 12.0769 6.70047C10.3267 6.70047 10.1191 6.70682 9.4279 6.73859C8.78863 6.76763 8.44106 6.87405 8.21026 6.96401C7.90361 7.08259 7.6854 7.22466 7.45606 7.45417C7.22673 7.68368 7.08479 7.90197 6.96561 8.20792C6.87644 8.43926 6.76917 8.78594 6.74005 9.42482C6.70879 10.1161 6.70192 10.3231 6.70192 12.073C6.70192 13.823 6.70826 14.0304 6.74005 14.7212C6.76911 15.3601 6.8756 15.7074 6.96561 15.9381C7.08426 16.244 7.22642 16.4621 7.45606 16.6913C7.68571 16.9205 7.90414 17.0624 8.21026 17.1815ZM7.78207 5.86406C8.19862 5.70207 8.67559 5.59145 9.37361 5.55968C10.0731 5.52739 10.2968 5.52 12.0774 5.52C13.858 5.52 14.0816 5.52792 14.7807 5.55968C15.4782 5.59093 15.9549 5.70207 16.3722 5.86406C16.8028 6.03134 17.1689 6.25519 17.5332 6.6199C17.8976 6.98461 18.1216 7.34985 18.2895 7.78072C18.4516 8.19701 18.5623 8.67365 18.5941 9.3713C18.6258 10.07 18.6332 10.2934 18.6332 12.073C18.6332 13.8525 18.6258 14.0754 18.5941 14.7746C18.5628 15.4722 18.4516 15.9486 18.2895 16.3652C18.1216 16.7961 17.8981 17.1619 17.5332 17.526C17.1683 17.8901 16.8028 18.1141 16.3717 18.2818C15.9549 18.4438 15.4782 18.5544 14.7802 18.5862C14.081 18.6185 13.8575 18.6259 12.0769 18.6259C10.2962 18.6259 10.0731 18.618 9.37361 18.5862C8.67559 18.5544 8.1994 18.4438 7.78207 18.2818C7.35068 18.1141 6.98544 17.89 6.62056 17.526C6.25568 17.162 6.03165 16.7961 5.86426 16.3652C5.70218 15.9486 5.5915 15.4723 5.55971 14.7746C5.5274 14.0759 5.52 13.8525 5.52 12.073C5.52 10.2934 5.5274 10.07 5.55971 9.3713C5.5915 8.6737 5.70218 8.19727 5.86426 7.78072C6.03165 7.34958 6.25563 6.98403 6.62056 6.6199C6.98549 6.25577 7.35068 6.03134 7.78207 5.86406Z" fill="url(#paint0_linear_1_66)"/>
</g>
<defs>
<linearGradient id="paint0_linear_1_66" x1="98.078" y1="100" x2="-1.922" y2="-2.69172e-06" gradientUnits="userSpaceOnUse">
<stop stop-color="#FBE18A"/>
<stop offset="0.21" stop-color="#FCBB45"/>
<stop offset="0.38" stop-color="#F75274"/>
<stop offset="0.52" stop-color="#D53692"/>
<stop offset="0.74" stop-color="#8F39CE"/>
<stop offset="1" stop-color="#5B4FE9"/>
</linearGradient>
<clipPath id="clip0_1_66">
<rect width="24" height="24" rx="12" fill="white"/>
</clipPath>
</defs>
</svg>
