<svg width="24" height="24" viewBox="0 0 24 24" fill="none" xmlns="http://www.w3.org/2000/svg">
<g clip-path="url(#clip0_1_52)">
<rect width="24" height="24" rx="12" fill="white"/>
<path fill-rule="evenodd" clip-rule="evenodd" d="M24 0H0V24H24V0ZM5.52 6.45938C5.52 5.94087 5.95409 5.52 6.48919 5.52H17.6646C18.1999 5.52 18.6338 5.94087 18.6338 6.45938V17.6945C18.6338 18.2132 18.1999 18.6338 17.6646 18.6338H6.48919C5.95414 18.6338 5.52 18.2133 5.52 17.6947V6.45938ZM9.50504 16.4945V10.5907H7.54269V16.4945H9.50504ZM8.52427 9.78473C9.20844 9.78473 9.63439 9.33139 9.63439 8.76483C9.62158 8.18537 9.20844 7.74467 8.53729 7.74467C7.86567 7.74467 7.42702 8.18537 7.42702 8.76478C7.42702 9.33134 7.85281 9.78468 8.51142 9.78468L8.52427 9.78473ZM10.5912 16.4945H12.5534V13.1979C12.5534 13.0217 12.5662 12.845 12.6181 12.7191C12.7599 12.3665 13.0827 12.0014 13.625 12.0014C14.3349 12.0014 14.619 12.5427 14.619 13.3365V16.4945H16.5811V13.1094C16.5811 11.2961 15.6132 10.4523 14.3221 10.4523C13.2813 10.4523 12.8144 11.0243 12.5536 11.4265V10.5909H10.5913C10.6169 11.1447 10.5912 16.4945 10.5912 16.4945Z" fill="#006699"/>
</g>
<defs>
<clipPath id="clip0_1_52">
<rect width="24" height="24" rx="12" fill="white"/>
</clipPath>
</defs>
</svg>
